
<svg width="1274px" height="410px" viewBox="0 0 1274 410" version="1.1" xmlns="http://www.w3.org/2000/svg" xmlns:xlink="http://www.w3.org/1999/xlink">
    <g id="Page-1" stroke="none" stroke-width="1" fill="none" fill-rule="evenodd">
        <g id="Group" transform="translate(0.480000, 0.000000)" fill-rule="nonzero">
            <path d="M178.5,317.2 C127.3,266.2 80,219.3 73.5,213 C55.5,195.5 11.3,153.1 5.3,147.5 L-5.68434189e-14,142.5 L1.5,139 C2.3,137.1 5.9,129.3 9.5,121.6 C13.1,114 16.1,107.6 16.1,107.5 C16.1,107.3 19.3,100.6 23.1,92.5 C27,84.4 30.1,77.7 30.1,77.5 C30.1,77.3 33.3,70.6 37.1,62.5 C41,54.4 44.1,47.7 44.1,47.5 C44.1,47.4 46.9,41.4 50.2,34.4 C53.6,27.3 57.3,19.3 58.6,16.5 C59.8,13.8 62.1,8.9 63.6,5.8 L66.3,2.84217094e-14 L83.7,2.84217094e-14 L101.2,2.84217094e-14 L105.1,8.5 C107.3,13.2 111,20.9 113.2,25.8 C115.5,30.6 119.9,40.1 123.1,47 C132.6,67.5 135.6,74 142.5,88.5 C146.1,96 149.1,102.4 149.1,102.5 C149.1,102.7 151.3,107.5 154,113.2 C156.7,118.8 160.3,126.7 162.1,130.5 C163.9,134.4 167,141.1 169.1,145.5 C171.2,149.9 174.3,156.7 176.1,160.5 C177.9,164.4 181.4,171.8 183.8,177 C186.3,182.2 190.9,192.1 194.1,199 C197.3,205.9 201.8,215.6 204.1,220.5 C206.4,225.5 209.8,232.7 211.6,236.5 C213.4,240.4 216.6,247.3 218.9,252 C221.1,256.7 227.3,270 232.6,281.5 C238,293.1 244.8,307.6 247.7,313.9 C250.7,320.1 253.1,325.4 253.1,325.5 C253.1,325.6 255.7,331.3 259,338.1 C264.9,350.6 268,357.3 274.4,371 C276.3,375.1 279.4,381.9 281.4,386 C287.8,399.6 292.1,409.1 292.1,409.6 C292.1,409.8 287.5,410 281.9,410 L271.6,409.9 L178.5,317.2 Z" id="Path-Copy" fill="#3DC0CC" transform="translate(146.050000, 205.000000) rotate(-180.000000) translate(-146.050000, -205.000000) "></path>
            <path d="M302.92,317.2 C251.72,266.2 204.42,219.3 197.92,213 C179.92,195.5 135.72,153.1 129.72,147.5 L124.42,142.5 L125.92,139 C126.72,137.1 130.32,129.3 133.92,121.6 C137.52,114 140.52,107.6 140.52,107.5 C140.52,107.3 143.72,100.6 147.52,92.5 C151.42,84.4 154.52,77.7 154.52,77.5 C154.52,77.3 157.72,70.6 161.52,62.5 C165.42,54.4 168.52,47.7 168.52,47.5 C168.52,47.4 171.32,41.4 174.62,34.4 C178.02,27.3 181.72,19.3 183.02,16.5 C184.22,13.8 186.52,8.9 188.02,5.8 L190.72,2.84217094e-14 L208.12,2.84217094e-14 L225.62,2.84217094e-14 L229.52,8.5 C231.72,13.2 235.42,20.9 237.62,25.8 C239.92,30.6 244.32,40.1 247.52,47 C257.02,67.5 260.02,74 266.92,88.5 C270.52,96 273.52,102.4 273.52,102.5 C273.52,102.7 275.72,107.5 278.42,113.2 C281.12,118.8 284.72,126.7 286.52,130.5 C288.32,134.4 291.42,141.1 293.52,145.5 C295.62,149.9 298.72,156.7 300.52,160.5 C302.32,164.4 305.82,171.8 308.22,177 C310.72,182.2 315.32,192.1 318.52,199 C321.72,205.9 326.22,215.6 328.52,220.5 C330.82,225.5 334.22,232.7 336.02,236.5 C337.82,240.4 341.02,247.3 343.32,252 C345.52,256.7 351.72,270 357.02,281.5 C362.42,293.1 369.22,307.6 372.12,313.9 C375.12,320.1 377.52,325.4 377.52,325.5 C377.52,325.6 380.12,331.3 383.42,338.1 C389.32,350.6 392.42,357.3 398.82,371 C400.72,375.1 403.82,381.9 405.82,386 C412.22,399.6 416.52,409.1 416.52,409.6 C416.52,409.8 411.92,410 406.32,410 L396.02,409.9 L302.92,317.2 Z" id="Path" fill="#EF4029" transform="translate(270.470000, 205.000000) scale(-1, 1) rotate(-180.000000) translate(-270.470000, -205.000000) "></path>
            <path d="M1029.52,219.444069 C1027.62,218.944069 1024.82,217.344069 1023.32,215.844069 C1021.02,213.744069 1020.52,212.444069 1020.52,208.144069 C1020.52,202.144069 1022.42,199.044069 1027.12,197.044069 C1036.12,193.244069 1045.42,197.344069 1047.02,205.844069 C1048.72,215.044069 1039.62,222.144069 1029.52,219.444069 Z" id="Path" fill="#FFFFFF" transform="translate(1033.872874, 207.822034) scale(-1, 1) rotate(-180.000000) translate(-1033.872874, -207.822034) "></path>
            <path d="M416.52,309.3 C416.52,308.8 418.12,304 420.12,298.5 C422.12,293.1 426.42,281.2 429.72,272.1 C432.92,263 436.22,254 436.92,252.1 C437.62,250.2 439.22,245.9 440.42,242.6 C441.52,239.3 445.42,228.7 448.92,219.1 L455.32,201.6 L462.22,201.3 L469.12,201 L474.42,215.3 C477.32,223.2 482.62,237.5 486.22,247.1 C489.82,256.7 495.12,271.1 498.02,279.1 C500.92,287.1 504.72,297.3 506.42,301.9 L509.42,310.1 L502.72,310.1 L495.92,310.1 L494.62,306.4 C493.92,304.3 491.32,297.2 489.02,290.6 C486.62,284 482.22,271.4 479.02,262.6 C475.92,253.8 471.42,241.2 469.02,234.6 C466.62,228 464.22,221 463.72,219.1 C462.62,215.1 462.82,214.8 458.62,227.6 C455.92,235.7 452.12,246.7 439.32,283.1 C437.12,289.4 434.12,298.1 432.72,302.4 L430.12,310.1 L423.32,310.1 C419.62,310.1 416.52,309.7 416.52,309.3 Z" id="Path" fill="#FFFFFF" transform="translate(462.970000, 255.550000) scale(-1, 1) rotate(-180.000000) translate(-462.970000, -255.550000) "></path>
            <polygon id="Path" fill="#FFFFFF" transform="translate(770.520000, 255.550000) scale(-1, 1) rotate(-180.000000) translate(-770.520000, -255.550000) " points="727.52 300.1 727.52 290.1 743.02 290.1 758.52 290.1 758.52 245.6 758.52 201 770.82 201.3 783.02 201.6 783.32 245.9 783.52 290.1 798.52 290.1 813.52 290.1 813.52 300.1 813.52 310.1 770.52 310.1 727.52 310.1"></polygon>
            <path d="M551.22,309.6815 C543.62,306.8815 535.42,299.6815 531.62,292.2815 C525.92,281.2815 525.72,259.7815 531.32,248.5815 C534.42,242.1815 539.62,237.1815 545.92,234.0815 C551.82,231.3815 553.22,231.0815 562.72,231.0815 C573.52,231.0815 581.12,232.7815 586.92,236.5815 C589.22,238.0815 589.52,238.9815 589.52,243.6815 C589.52,246.6815 589.32,249.0815 589.02,249.0815 C588.82,249.0815 586.92,247.9815 584.92,246.5815 C577.52,241.5815 565.12,239.6815 556.02,242.1815 C553.52,242.8815 550.22,245.0815 547.42,247.9815 C542.82,252.4815 541.32,255.8815 539.92,264.3815 L539.22,268.0815 L566.92,268.0815 L594.52,268.0815 L594.52,274.0815 C594.52,291.7815 586.82,305.3815 574.52,309.3815 C568.22,311.3815 556.52,311.5815 551.22,309.6815 Z M572.02,298.7815 C576.92,295.9815 580.42,290.0815 581.22,283.1815 L581.82,278.0815 L561.12,278.0815 C542.12,278.0815 540.52,278.1815 540.52,279.8815 C540.52,286.4815 546.62,295.4815 553.42,299.0815 C558.62,301.7815 566.92,301.6815 572.02,298.7815 Z" id="Shape" fill="#FFFFFF" transform="translate(560.875213, 271.040750) scale(-1, 1) rotate(-180.000000) translate(-560.875213, -271.040750) "></path>
            <path d="M659.42,308.7 C655.02,307.2 649.22,302.8 647.12,299.5 C644.42,295.5 643.32,296.6 643.62,302.9 L643.92,308.6 L637.72,308.9 L631.52,309.2 L631.52,270.1 L631.52,231.1 L637.52,231.1 C642.62,231.1 643.52,231.4 643.52,232.9 C643.42,254.2 644.42,282.3 645.52,285.3 C648.62,294.1 656.82,300 665.82,300.1 C671.62,300.1 675.62,298.2 678.92,293.9 C683.02,288.4 683.52,284.2 683.52,256.8 L683.52,231 L689.82,231.3 L696.02,231.6 L696.02,258.6 C696.02,277.8 695.62,287.1 694.72,290.8 C691.42,303.5 682.92,310.1 670.12,310.1 C666.22,310 661.42,309.4 659.42,308.7 Z" id="Path" fill="#FFFFFF" transform="translate(663.770000, 270.550000) scale(-1, 1) rotate(-180.000000) translate(-663.770000, -270.550000) "></path>
            <path d="M978.02,308.761237 C973.72,307.261237 967.82,301.261237 966.92,297.561237 C965.82,293.361237 964.52,296.261237 964.52,302.861237 L964.52,309.261237 L953.02,309.261237 L941.52,309.261237 L941.52,270.261237 L941.52,231.261237 L953.02,231.261237 L964.52,231.261237 L964.52,250.561237 C964.52,274.461237 965.62,279.961237 971.62,285.661237 L975.72,289.461237 L983.62,289.061237 L991.62,288.561237 L991.32,299.161237 L991.02,309.761237 L986.52,309.961237 C984.02,310.161237 980.22,309.561237 978.02,308.761237 Z" id="Path" fill="#FFFFFF" transform="translate(966.570000, 270.630619) scale(-1, 1) rotate(-180.000000) translate(-966.570000, -270.630619) "></path>
            <path d="M1126.92,307.550068 C1124.22,306.250068 1120.32,303.350068 1118.22,300.950068 L1114.62,296.750068 L1114.32,302.550068 L1114.02,308.450068 L1102.32,308.750068 L1090.52,309.050068 L1090.52,269.950068 L1090.52,230.950068 L1102.52,230.950068 L1114.52,230.950068 L1114.52,255.950068 C1114.52,283.450068 1114.72,284.350068 1120.52,289.350068 C1125.12,293.150068 1132.52,293.050068 1136.52,289.150068 C1140.92,284.750068 1141.52,280.550068 1141.52,254.750068 L1141.52,230.950068 L1153.02,230.950068 L1164.52,230.950068 L1164.52,260.450068 C1164.52,287.450068 1164.32,290.350068 1162.52,295.250068 C1160.22,301.250068 1155.72,306.150068 1150.32,308.350068 C1144.42,310.850068 1133.12,310.450068 1126.92,307.550068 Z" id="Path" fill="#FFFFFF" transform="translate(1127.520000, 270.475034) scale(-1, 1) rotate(-180.000000) translate(-1127.520000, -270.475034) "></path>
            <path d="M1216.42,344.476447 C1210.62,342.376447 1205.72,338.976447 1202.32,334.576447 C1195.72,326.176447 1193.72,320.276447 1192.82,307.376447 C1191.62,288.776447 1198.42,274.276447 1211.02,268.276447 C1215.02,266.376447 1217.62,265.876447 1224.52,265.876447 C1234.72,265.876447 1240.02,267.976447 1245.72,274.076447 L1249.52,278.176447 L1249.52,273.676447 C1249.52,263.276447 1244.92,254.976447 1237.12,250.976447 C1230.62,247.776447 1218.62,247.676447 1209.22,250.776447 C1205.52,252.076447 1202.32,253.476447 1202.02,253.976447 C1200.32,256.676447 1199.52,253.876447 1199.52,244.976447 L1199.52,235.076447 L1204.32,233.376447 C1210.72,231.176447 1227.22,230.376447 1236.32,231.776447 C1251.72,234.176447 1262.22,241.376447 1268.22,253.676447 L1272.02,261.376447 L1272.32,303.176447 L1272.62,344.876447 L1261.02,344.876447 L1249.52,344.876447 L1249.52,340.276447 L1249.52,335.576447 L1245.12,339.676447 C1242.72,341.876447 1239.02,344.176447 1236.92,344.776447 C1231.62,346.276447 1220.82,346.076447 1216.42,344.476447 Z M1242.92,324.876447 C1248.02,320.276447 1249.52,316.376447 1249.52,306.676447 C1249.52,293.076447 1244.62,285.276447 1234.92,283.376447 C1230.52,282.576447 1223.52,285.576447 1220.82,289.476447 C1215.92,296.376447 1215.42,310.376447 1219.82,319.076447 C1222.92,325.076447 1227.42,327.876447 1234.12,327.876447 C1238.62,327.876447 1240.02,327.376447 1242.92,324.876447 Z" id="Shape" fill="#FFFFFF" transform="translate(1232.652029, 288.438224) scale(-1, 1) rotate(-180.000000) translate(-1232.652029, -288.438224) "></path>
            <path d="M828.52,283.7 C828.52,254.4 829.32,247.9 833.72,241.6 C838.72,234.5 844.22,232 854.52,232 C864.12,232 869.62,234.2 875.02,240.1 C876.92,242.2 878.72,244 879.02,244 C879.32,244 879.52,241.5 879.52,238.5 L879.52,233 L891.02,233 L902.52,233 L902.52,272 L902.52,311 L891.02,311 L879.62,311 L879.32,285.1 C879.02,256.5 879.02,256.7 872.12,251.6 C868.72,249 861.82,248.9 858.12,251.4 C852.52,255 852.02,257.2 851.72,285.3 L851.32,311 L839.92,311 L828.52,311 L828.52,283.7 Z" id="Path" fill="#FFFFFF" transform="translate(865.520000, 271.500000) scale(-1, 1) rotate(-180.000000) translate(-865.520000, -271.500000) "></path>
            <path d="M1021.52,280.406067 C1021.52,246.606067 1021.92,243.506067 1027.32,237.906067 C1032.02,232.906067 1035.22,231.806067 1044.62,231.906067 C1049.32,232.006067 1055.12,232.506067 1057.32,233.206067 L1061.52,234.306067 L1061.52,242.306067 L1061.52,250.406067 L1056.62,249.706067 C1052.42,249.106067 1051.42,249.406067 1048.92,251.506067 L1046.02,254.006067 L1045.52,282.406067 L1045.02,310.706067 L1033.32,311.006067 L1021.52,311.306067 L1021.52,280.406067 Z" id="Path" fill="#FFFFFF" transform="translate(1041.520000, 271.603034) scale(-1, 1) rotate(-180.000000) translate(-1041.520000, -271.603034) "></path>
            <path d="M460.82,382.28176 C457.02,379.88176 455.52,377.38176 455.52,373.28176 C455.52,369.28176 458.72,365.78176 466.02,361.68176 C473.72,357.48176 476.32,354.18176 474.72,350.68176 C474.02,349.28176 472.32,347.68176 470.82,347.08176 C467.52,345.78176 460.92,346.68176 457.82,348.78176 C455.62,350.18176 455.52,350.08176 455.52,347.28176 C455.52,344.88176 456.12,344.18176 458.62,343.28176 C465.22,340.98176 472.82,342.28176 477.32,346.38176 C479.02,348.08176 479.52,349.68176 479.52,353.28176 C479.52,357.38176 479.12,358.38176 476.42,360.68176 C474.62,362.08176 471.42,364.18176 469.12,365.38176 C460.32,369.78176 457.82,375.38176 463.02,378.78176 C465.62,380.48176 472.72,380.38176 476.82,378.68176 C478.42,377.98176 478.62,378.38176 478.32,380.78176 C478.02,383.68176 477.92,383.68176 471.02,383.98176 C465.52,384.18176 463.32,383.78176 460.82,382.28176 Z" id="Path" fill="#FFFFFF" transform="translate(467.520000, 363.090880) scale(-1, 1) rotate(-180.000000) translate(-467.520000, -363.090880) "></path>
            <path d="M504.02,382.715816 C500.82,381.015816 496.42,376.615816 494.92,373.715816 C492.92,369.815816 492.12,361.015816 493.42,356.115816 C496.52,344.715816 509.22,338.815816 520.02,343.815816 C528.62,347.715816 532.92,357.515816 530.72,368.415816 C529.32,375.315816 526.52,379.315816 521.52,381.915816 C517.12,384.115816 507.42,384.615816 504.02,382.715816 Z M519.62,377.615816 C526.32,373.215816 528.52,362.915816 524.62,354.215816 C522.12,348.915816 518.62,346.615816 512.62,346.515816 C503.02,346.315816 498.02,352.015816 498.02,362.915816 C498.12,367.115816 498.72,370.515816 499.82,372.715816 C503.62,379.715816 513.02,382.015816 519.62,377.615816 Z" id="Shape" fill="#FFFFFF" transform="translate(512.038138, 362.957908) scale(-1, 1) rotate(-180.000000) translate(-512.038138, -362.957908) "></path>
            <path d="M546.52,362.5 L546.52,342 L549.02,342 C551.52,342 551.52,342.1 551.52,351 L551.52,360 L559.02,360 C565.82,360 566.52,360.2 566.52,362 C566.52,363.8 565.82,364 559.02,364 L551.52,364 L551.52,371 L551.52,378 L559.52,378 C567.42,378 567.52,378 567.52,380.5 L567.52,383 L557.02,383 L546.52,383 L546.52,362.5 Z" id="Path" fill="#FFFFFF" transform="translate(557.020000, 362.500000) scale(-1, 1) rotate(-180.000000) translate(-557.020000, -362.500000) "></path>
            <path d="M578.52,380.5 C578.52,378.1 578.82,378 584.52,378 L590.52,378 L590.52,360 C590.52,342.7 590.62,342 592.52,342 C594.42,342 594.52,342.7 594.52,360 L594.52,378 L600.52,378 C606.22,378 606.52,378.1 606.52,380.5 L606.52,383 L592.52,383 L578.52,383 L578.52,380.5 Z" id="Path" fill="#FFFFFF" transform="translate(592.520000, 362.500000) scale(-1, 1) rotate(-180.000000) translate(-592.520000, -362.500000) "></path>
            <path d="M617.52,381.5 C617.52,380.6 620.02,371.4 623.12,361 C628.82,342.1 628.82,342 631.62,342 C633.22,342 634.52,342.2 634.52,342.4 C634.52,343 642.52,371.1 643.22,373 C643.62,374.3 646.22,366.1 651.42,346.3 C652.42,342.5 652.92,342 655.42,342 C658.12,342 658.42,342.4 660.32,348.8 C664.32,362.3 669.52,381.2 669.52,382.1 C669.52,382.6 668.52,383 667.22,383 C664.82,383 664.62,382.3 657.82,355.8 C656.82,352 655.82,349 655.52,349 C655.22,349 654.22,352.3 653.22,356.3 C652.22,360.2 650.22,367.8 648.72,373 C646.42,381 645.62,382.5 643.82,382.8 C642.02,383.1 641.42,382.4 640.52,378.8 C636.62,364.4 631.72,348.8 631.32,349.6 C631.02,350.1 628.82,357.8 626.42,366.7 C622.42,381.6 621.82,383 619.82,383 C618.42,383 617.52,382.4 617.52,381.5 Z" id="Path" fill="#FFFFFF" transform="translate(643.520000, 362.500000) scale(-1, 1) rotate(-180.000000) translate(-643.520000, -362.500000) "></path>
            <path d="M690.12,377.9 C689.12,375 685.82,366.3 682.82,358.6 C679.72,350.9 677.02,344 676.72,343.3 C676.42,342.3 677.02,342 679.02,342.3 C681.32,342.5 682.12,343.5 683.72,347.9 L685.62,353.1 L694.42,353.1 L703.22,353.1 L705.22,347.9 C706.92,343.5 707.72,342.5 709.92,342.3 L712.52,342 L709.62,349.8 C706.72,357.7 699.22,376.7 697.52,380.9 C696.92,382.3 695.72,383.1 694.32,383.1 C692.42,383.1 691.62,382.1 690.12,377.9 Z M698.92,367.3 C702.62,356.9 702.62,357.1 695.02,357.1 C691.42,357.1 688.52,357.5 688.52,358 C688.52,360.5 694.82,376.2 695.52,375.4 C695.92,375 697.52,371.3 698.92,367.3 Z" id="Shape" fill="#FFFFFF" transform="translate(694.583584, 362.550000) scale(-1, 1) rotate(-180.000000) translate(-694.583584, -362.550000) "></path>
            <path d="M725.52,362.5 L725.52,342 L728.02,342 C730.52,342 730.52,342.1 730.52,350.5 L730.52,359 L733.62,359 C738.32,359 740.12,357.5 744.62,349.9 C748.92,342.7 750.12,341.6 753.02,342.2 C754.22,342.4 753.62,344 750.02,350 C747.52,354.1 744.52,358.3 743.42,359.2 C741.52,360.8 741.52,360.9 743.42,361.5 C746.72,362.5 750.52,367.8 750.52,371.3 C750.42,379.4 745.12,383 733.32,383 L725.52,383 L725.52,362.5 Z M744.52,376 C747.12,373.4 747.02,369.7 744.22,366.5 C742.42,364.4 741.02,363.8 737.02,363.7 L732.02,363.5 L731.72,370.8 L731.42,378 L737.02,378 C741.22,378 743.02,377.5 744.52,376 Z" id="Shape" fill="#FFFFFF" transform="translate(739.550825, 362.500000) scale(-1, 1) rotate(-180.000000) translate(-739.550825, -362.500000) "></path>
            <path d="M767.52,362.5 L767.52,342 L778.52,342 C788.82,342 789.52,342.1 789.52,344 C789.52,345.8 788.82,346 781.02,346 L772.52,346 L772.52,353 L772.52,360 L780.02,360 C786.82,360 787.52,360.2 787.52,362 C787.52,364.1 787.52,364.1 778.52,364.4 L773.02,364.5 L772.72,371.3 L772.42,378 L780.52,378 C788.42,378 788.52,378 788.52,380.5 L788.52,383 L778.02,383 L767.52,383 L767.52,362.5 Z" id="Path" fill="#FFFFFF" transform="translate(778.520000, 362.500000) scale(-1, 1) rotate(-180.000000) translate(-778.520000, -362.500000) "></path>
            <path d="M837.72,380.3 C837.12,378.7 835.82,375.3 834.72,372.5 C827.02,352.5 823.52,343.2 823.52,342.6 C823.52,342.3 824.62,342 825.92,342 C827.82,342 828.62,342.9 830.12,347.3 L832.02,352.5 L841.02,352.5 L849.92,352.5 L852.02,347.3 C853.72,342.7 854.32,342 856.72,342 L859.42,342 L857.02,347.8 C854.62,353.5 849.12,367.8 845.32,377.8 C843.72,382 842.92,383 841.02,383 C839.42,383 838.42,382.2 837.72,380.3 Z M845.52,367 C847.12,362.4 848.52,358.3 848.52,357.8 C848.52,356.9 836.22,356.7 835.32,357.6 C835.02,357.9 835.92,361.4 837.42,365.3 C838.92,369.3 840.52,373.4 840.92,374.4 C841.82,377 842.02,376.6 845.52,367 Z" id="Shape" fill="#FFFFFF" transform="translate(841.470000, 362.500000) scale(-1, 1) rotate(-180.000000) translate(-841.470000, -362.500000) "></path>
            <path d="M872.52,362.6 L872.52,342.1 L875.02,342.1 L877.52,342.1 L877.72,358.7 L878.02,375.4 L888.52,359 C898.22,343.8 899.32,342.6 902.32,342.3 L905.52,342 L905.52,362.5 L905.52,383.1 L903.02,383.1 L900.52,383.1 L900.52,365.9 L900.52,348.6 L896.22,355.1 C893.92,358.7 888.92,366.4 885.22,372.4 C879.02,382 878.02,383.1 875.42,383.1 L872.52,383.1 L872.52,362.6 Z" id="Path" fill="#FFFFFF" transform="translate(889.020000, 362.550000) scale(-1, 1) rotate(-180.000000) translate(-889.020000, -362.550000) "></path>
            <path d="M923.52,362.6 L923.52,342 L933.42,342.4 C942.12,342.7 943.72,343.1 947.32,345.5 C957.72,352.3 959.32,368.6 950.72,377.3 C946.52,381.5 940.42,383.2 930.02,383.2 L923.52,383.2 L923.52,362.6 Z M946.52,374.7 C954.62,367 952.02,351.8 941.82,347.6 C940.02,346.8 936.12,346.2 933.02,346.2 L927.52,346.2 L927.52,362.3 L927.52,378.4 L935.42,378.1 C942.62,377.7 943.72,377.4 946.52,374.7 Z" id="Shape" fill="#FFFFFF" transform="translate(939.893980, 362.600000) scale(-1, 1) rotate(-180.000000) translate(-939.893980, -362.600000) "></path>
            <polygon id="Path" fill="#FFFFFF" transform="translate(997.020000, 362.500000) scale(-1, 1) rotate(-180.000000) translate(-997.020000, -362.500000) " points="994.52 362.5 994.52 342 997.02 342 999.52 342 999.52 362.5 999.52 383 997.02 383 994.52 383"></polygon>
            <path d="M1017.52,362.6 L1017.52,342 L1026.82,342.4 C1038.22,342.8 1042.62,344.8 1046.62,351.1 C1049.12,354.9 1049.52,356.6 1049.52,362.4 C1049.52,366.2 1048.92,370.7 1048.12,372.5 C1045.12,379.7 1037.32,383.2 1024.02,383.2 L1017.52,383.2 L1017.52,362.6 Z M1040.32,374.9 C1048.62,366.9 1045.72,351.2 1035.22,347.3 C1033.62,346.7 1029.92,346.2 1026.92,346.2 L1021.52,346.2 L1021.52,362.3 L1021.52,378.4 L1029.42,378.1 C1036.52,377.7 1037.72,377.4 1040.32,374.9 Z" id="Shape" fill="#FFFFFF" transform="translate(1033.520000, 362.600000) scale(-1, 1) rotate(-180.000000) translate(-1033.520000, -362.600000) "></path>
            <path d="M1065.52,362.5 L1065.52,342 L1076.02,342 C1085.82,342 1086.52,342.1 1086.52,344 C1086.52,345.8 1085.82,346 1078.02,346 L1069.52,346 L1069.52,353 L1069.52,360 L1077.02,360 C1084.12,360 1084.52,360.1 1084.52,362.3 C1084.52,364.4 1084.12,364.5 1077.32,364.5 L1070.02,364.5 L1069.72,371.3 L1069.42,378 L1077.52,378 C1085.42,378 1085.52,378 1085.52,380.5 L1085.52,383 L1075.52,383 L1065.52,383 L1065.52,362.5 Z" id="Path" fill="#FFFFFF" transform="translate(1076.020000, 362.500000) scale(-1, 1) rotate(-180.000000) translate(-1076.020000, -362.500000) "></path>
            <path d="M1112.12,379.882886 C1111.42,378.082886 1108.92,371.682886 1106.62,365.582886 C1104.22,359.582886 1101.32,351.882886 1100.02,348.582886 C1098.02,343.482886 1097.82,342.482886 1099.12,342.282886 C1101.82,341.682886 1103.02,342.782886 1104.92,347.982886 L1106.72,353.082886 L1115.52,353.082886 L1124.22,353.082886 L1126.22,347.882886 C1127.92,343.482886 1128.72,342.482886 1130.92,342.282886 C1132.32,342.082886 1133.52,342.182886 1133.52,342.382886 C1133.52,342.682886 1131.72,347.282886 1129.62,352.682886 C1127.52,358.182886 1123.92,367.082886 1121.82,372.582886 C1118.62,380.682886 1117.52,382.682886 1115.72,382.882886 C1114.02,383.182886 1113.22,382.482886 1112.12,379.882886 Z M1119.12,369.482886 C1120.52,365.682886 1121.92,361.382886 1122.22,359.882886 L1122.72,357.082886 L1116.12,357.082886 C1112.52,357.082886 1109.52,357.382886 1109.52,357.682886 C1109.52,358.782886 1115.92,376.982886 1116.22,376.682886 C1116.42,376.582886 1117.72,373.282886 1119.12,369.482886 Z" id="Shape" fill="#FFFFFF" transform="translate(1115.908975, 362.541443) scale(-1, 1) rotate(-180.000000) translate(-1115.908975, -362.541443) "></path>
            <path d="M1152.52,383.338134 C1151.72,383.038134 1149.82,381.638134 1148.32,380.238134 C1146.12,378.238134 1145.52,376.738134 1145.52,373.438134 C1145.52,368.538134 1147.82,365.838134 1155.72,361.538134 C1163.22,357.538134 1164.52,356.238134 1164.52,352.338134 C1164.52,349.338134 1164.02,348.738134 1160.82,347.438134 C1156.92,345.738134 1152.12,346.138134 1147.32,348.638134 C1144.62,350.038134 1144.52,350.038134 1144.52,347.538134 C1144.52,340.538134 1163.02,340.238134 1167.92,347.138134 C1170.32,350.538134 1170.02,356.438134 1167.32,359.438134 C1166.02,360.838134 1161.92,363.738134 1158.02,365.838134 C1151.62,369.438134 1151.02,370.038134 1150.72,373.338134 C1150.52,376.038134 1150.92,377.238134 1152.72,378.438134 C1155.22,380.238134 1161.12,380.538134 1164.82,379.138134 C1167.02,378.238134 1167.42,378.438134 1167.72,380.538134 C1168.02,382.038134 1167.72,383.138134 1166.82,383.438134 C1165.02,384.138134 1154.52,384.038134 1152.52,383.338134 Z" id="Path" fill="#FFFFFF" transform="translate(1157.033682, 363.019067) scale(-1, 1) rotate(-180.000000) translate(-1157.033682, -363.019067) "></path>
        </g>
    </g>
</svg>