<svg width="417px" height="410px" viewBox="0 0 417 410" version="1.1" xmlns="http://www.w3.org/2000/svg" xmlns:xlink="http://www.w3.org/1999/xlink">
    <g id="Page-1" stroke="none" stroke-width="1" fill="none" fill-rule="evenodd">
        <g id="Group" transform="translate(0.480000, -0.000000)" fill-rule="nonzero">
            <path d="M178.5,317.2 C127.3,266.2 80,219.3 73.5,213 C55.5,195.5 11.3,153.1 5.3,147.5 L0,142.5 L1.5,139 C2.3,137.1 5.9,129.3 9.5,121.6 C13.1,114 16.1,107.6 16.1,107.5 C16.1,107.3 19.3,100.6 23.1,92.5 C27,84.4 30.1,77.7 30.1,77.5 C30.1,77.3 33.3,70.6 37.1,62.5 C41,54.4 44.1,47.7 44.1,47.5 C44.1,47.4 46.9,41.4 50.2,34.4 C53.6,27.3 57.3,19.3 58.6,16.5 C59.8,13.8 62.1,8.9 63.6,5.8 L66.3,5.68434189e-14 L83.7,5.68434189e-14 L101.2,5.68434189e-14 L105.1,8.5 C107.3,13.2 111,20.9 113.2,25.8 C115.5,30.6 119.9,40.1 123.1,47 C132.6,67.5 135.6,74 142.5,88.5 C146.1,96 149.1,102.4 149.1,102.5 C149.1,102.7 151.3,107.5 154,113.2 C156.7,118.8 160.3,126.7 162.1,130.5 C163.9,134.4 167,141.1 169.1,145.5 C171.2,149.9 174.3,156.7 176.1,160.5 C177.9,164.4 181.4,171.8 183.8,177 C186.3,182.2 190.9,192.1 194.1,199 C197.3,205.9 201.8,215.6 204.1,220.5 C206.4,225.5 209.8,232.7 211.6,236.5 C213.4,240.4 216.6,247.3 218.9,252 C221.1,256.7 227.3,270 232.6,281.5 C238,293.1 244.8,307.6 247.7,313.9 C250.7,320.1 253.1,325.4 253.1,325.5 C253.1,325.6 255.7,331.3 259,338.1 C264.9,350.6 268,357.3 274.4,371 C276.3,375.1 279.4,381.9 281.4,386 C287.8,399.6 292.1,409.1 292.1,409.6 C292.1,409.8 287.5,410 281.9,410 L271.6,409.9 L178.5,317.2 Z" id="Path-Copy" fill="#3DC0CC" transform="translate(146.050000, 205.000000) rotate(-180.000000) translate(-146.050000, -205.000000) "></path>
            <path d="M302.92,317.2 C251.72,266.2 204.42,219.3 197.92,213 C179.92,195.5 135.72,153.1 129.72,147.5 L124.42,142.5 L125.92,139 C126.72,137.1 130.32,129.3 133.92,121.6 C137.52,114 140.52,107.6 140.52,107.5 C140.52,107.3 143.72,100.6 147.52,92.5 C151.42,84.4 154.52,77.7 154.52,77.5 C154.52,77.3 157.72,70.6 161.52,62.5 C165.42,54.4 168.52,47.7 168.52,47.5 C168.52,47.4 171.32,41.4 174.62,34.4 C178.02,27.3 181.72,19.3 183.02,16.5 C184.22,13.8 186.52,8.9 188.02,5.8 L190.72,5.68434189e-14 L208.12,5.68434189e-14 L225.62,5.68434189e-14 L229.52,8.5 C231.72,13.2 235.42,20.9 237.62,25.8 C239.92,30.6 244.32,40.1 247.52,47 C257.02,67.5 260.02,74 266.92,88.5 C270.52,96 273.52,102.4 273.52,102.5 C273.52,102.7 275.72,107.5 278.42,113.2 C281.12,118.8 284.72,126.7 286.52,130.5 C288.32,134.4 291.42,141.1 293.52,145.5 C295.62,149.9 298.72,156.7 300.52,160.5 C302.32,164.4 305.82,171.8 308.22,177 C310.72,182.2 315.32,192.1 318.52,199 C321.72,205.9 326.22,215.6 328.52,220.5 C330.82,225.5 334.22,232.7 336.02,236.5 C337.82,240.4 341.02,247.3 343.32,252 C345.52,256.7 351.72,270 357.02,281.5 C362.42,293.1 369.22,307.6 372.12,313.9 C375.12,320.1 377.52,325.4 377.52,325.5 C377.52,325.6 380.12,331.3 383.42,338.1 C389.32,350.6 392.42,357.3 398.82,371 C400.72,375.1 403.82,381.9 405.82,386 C412.22,399.6 416.52,409.1 416.52,409.6 C416.52,409.8 411.92,410 406.32,410 L396.02,409.9 L302.92,317.2 Z" id="Path" fill="#EF4029" transform="translate(270.470000, 205.000000) scale(-1, 1) rotate(-180.000000) translate(-270.470000, -205.000000) "></path>
        </g>
    </g>
</svg>